<svg xmlns="http://www.w3.org/2000/svg" viewBox="0 0 577 577">
  <rect width="577" height="577" rx="112" fill="#141412"/>
  <g transform="translate(43.3,127) scale(0.85)">
    <g transform="translate(0,367) scale(0.1,-0.1)" fill="#fdf9f4" stroke="none">
      <path d="M1830 3300 c-279 -35 -584 -149 -830 -310 -128 -84 -300 -257 -364
-365 -68 -117 -88 -177 -90 -265 -2 -173 93 -291 291 -361 75 -27 242 -36 353
-20 221 33 531 190 691 351 104 104 142 183 143 297 1 75 -1 85 -29 125 -21
28 -50 53 -90 73 -57 29 -63 30 -189 29 -105 0 -145 -4 -201 -22 -168 -52
-385 -182 -518 -311 -86 -83 -147 -160 -147 -184 0 -40 30 -20 148 97 195 194
336 290 517 352 68 23 97 27 195 28 107 1 119 -1 172 -27 80 -39 102 -73 102
-157 0 -189 -202 -375 -547 -504 -148 -55 -259 -76 -414 -76 -101 0 -145 4
-192 19 -222 69 -298 259 -189 474 187 372 719 672 1273 719 347 29 714 -56
909 -211 l37 -30 -63 -42 c-99 -67 -255 -186 -348 -265 -163 -140 -242 -221
-456 -470 -538 -625 -692 -773 -918 -880 -123 -59 -196 -75 -356 -81 -157 -6
-229 5 -318 50 -45 22 -105 84 -99 101 2 6 21 11 42 12 43 1 85 39 85 76 0 34
-29 85 -56 97 -67 30 -143 -14 -158 -91 -52 -278 526 -391 1012 -198 150 60
340 187 496 332 151 139 270 285 560 684 177 244 225 303 331 409 104 105 256
235 275 235 14 0 70 -92 81 -134 6 -23 9 -75 7 -116 -14 -231 -274 -536 -520
-611 l-68 -21 -47 31 c-80 53 -173 38 -173 -28 0 -30 53 -51 130 -51 33 0 60
-2 60 -5 0 -22 -59 -112 -113 -175 -36 -41 -106 -122 -156 -180 -158 -183
-213 -300 -178 -382 49 -117 186 -100 538 68 97 46 179 84 183 84 4 0 20 -16
37 -35 72 -81 217 -116 403 -96 132 14 249 51 385 121 197 102 289 208 291
337 1 107 -68 171 -202 188 -188 24 -521 -117 -747 -314 -91 -80 -131 -111
-142 -111 -17 0 -20 62 -4 121 55 219 300 389 678 473 216 49 504 46 942 -10
450 -57 780 -58 1000 -3 184 46 423 205 376 252 -7 7 -27 -3 -68 -35 -82 -64
-133 -87 -216 -98 -39 -5 -414 -10 -832 -10 -418 0 -821 -5 -895 -10 -452 -34
-768 -166 -948 -397 -58 -76 -85 -152 -85 -242 l0 -73 -70 -45 c-197 -128
-428 -220 -497 -198 -46 14 -16 69 109 195 157 161 232 259 263 348 20 55 20
86 6 221 -3 22 4 26 97 51 280 77 446 184 525 340 50 99 62 208 35 310 -18 68
-66 161 -112 218 -24 30 -32 47 -25 54 5 5 79 56 163 111 139 92 187 137 146
137 -8 0 -90 -50 -182 -111 l-168 -110 -56 41 c-117 84 -260 146 -431 186 -88
21 -138 25 -305 29 -110 2 -234 0 -275 -5z m1799 -1380 c116 -59 105 -203 -25
-318 -102 -90 -348 -198 -508 -223 -93 -15 -218 -6 -290 21 -54 21 -126 72
-126 90 0 4 13 16 29 27 16 10 64 51 106 91 126 120 223 191 342 250 174 87
373 113 472 62z"/>
<path d="M4395 2014 c-136 -108 -581 -553 -694 -696 l-85 -106 -105 -12 c-277
-32 -599 -118 -617 -165 -4 -9 -4 -18 -1 -22 3 -3 69 15 147 41 77 25 195 57
263 70 134 27 267 42 267 31 0 -14 -324 -461 -382 -528 -182 -206 -353 -324
-553 -378 -111 -31 -398 -34 -490 -6 -115 36 -176 78 -197 138 -5 13 3 15 44
15 43 -1 53 3 75 28 50 59 6 156 -70 156 -41 0 -95 -33 -107 -66 -20 -52 -12
-127 19 -176 74 -117 221 -168 485 -168 272 0 490 63 706 203 208 136 408 361
615 695 73 118 78 122 172 122 l33 0 -75 -96 c-85 -108 -99 -130 -92 -149 8
-20 72 -27 109 -12 49 21 72 52 127 168 l49 105 66 18 c162 44 263 176 166
216 -61 25 -153 -23 -257 -134 -57 -62 -59 -63 -122 -70 -35 -4 -65 -5 -68 -3
-2 3 22 47 53 98 144 240 326 448 559 641 97 81 122 118 85 126 -9 1 -65 -36
-125 -84z"/>
    </g>
  </g>
</svg>
